<svg xmlns="http://www.w3.org/2000/svg" width="308" height="48" viewBox="0 0 308 48">
  <g id="Group_316" data-name="Group 316" transform="translate(-1687 -1444)">
    <rect id="Rectangle_119" data-name="Rectangle 119" width="308" height="48" rx="4" transform="translate(1687 1444)" fill="#2699fb"/>
    <g id="Group_312" data-name="Group 312" transform="translate(-3)">
      <g id="Down_arrow" data-name="Down arrow" transform="translate(1708 1460)">
        <path id="Path_10" data-name="Path 10" d="M8,0,6.545,1.455l5.506,5.506H0V9.039H12.052L6.545,14.545,8,16l8-8Z" transform="translate(16) rotate(90)" fill="#fff"/>
      </g>
      <text id="BUTTON" transform="translate(1781 1474)" fill="#fff" font-size="17" font-family="Poppins-Regular, Poppins"><tspan x="-49.053" y="0">DOWNLOAD</tspan></text>
    </g>
    <g id="Group_315" data-name="Group 315" transform="translate(0 -0.51)">
      <g id="Group_313" data-name="Group 313" transform="translate(20.087 0.932)">
        <path id="Icon_simple-microsoftword" data-name="Icon simple-microsoftword" d="M28.367,4.615V24.173a.53.53,0,0,1-.176.409.6.6,0,0,1-.426.163H17.648V22.033H25.9V20.8h-8.26V19.286h8.253V18.052H17.647V16.527H25.9v-1.22h-8.25V13.779H25.9V12.545h-8.25V11.033H25.9V9.8h-8.25V8.258H25.9V7.083h-8.25V4.018h10.12a.533.533,0,0,1,.423.176.548.548,0,0,1,.176.421ZM16.134.96V27.817L0,25.026V3.828L16.134.956ZM13.7,8.889l-2.02.124-1.3,8.02h-.03c-.064-.379-.3-1.708-.727-3.98L8.872,9.2l-1.9.095-.759,3.762c-.443,2.191-.69,3.467-.755,3.825H5.444L4.292,9.491l-1.738.092L4.416,18.9l1.931.124L7.074,15.4c.426-2.128.674-3.364.727-3.7h.053c.072.361.3,1.624.727,3.794l.727,3.733,2.092.124,2.34-10.461H13.7Z" transform="translate(1879.913 1446.622)" fill="#fff"/>
        <text id="BUTTON-2" data-name="BUTTON" transform="translate(1893.913 1483.763)" fill="#fff" font-size="7" font-family="Poppins-Regular, Poppins"><tspan x="-10.769" y="0">WORD</tspan></text>
      </g>
      <g id="Group_314" data-name="Group 314" transform="translate(0.255 -0.472)">
        <path id="Icon_awesome-file-pdf" data-name="Icon awesome-file-pdf" d="M9.719,13.683a5.155,5.155,0,0,1-.107-2.506C10.061,11.178,10.018,13.149,9.719,13.683Zm-.091,2.522a24.654,24.654,0,0,1-1.517,3.35,19.674,19.674,0,0,1,3.361-1.17A6.921,6.921,0,0,1,9.628,16.205ZM4.6,22.873c0,.043.705-.289,1.865-2.148A7.385,7.385,0,0,0,4.6,22.873Zm8.65-14.325h7.266V26.074a1.279,1.279,0,0,1-1.282,1.282H1.282A1.279,1.279,0,0,1,0,26.074V1.282A1.279,1.279,0,0,1,1.282,0H11.968V7.266A1.286,1.286,0,0,0,13.251,8.549Zm-.427,9.179a5.363,5.363,0,0,1-2.281-2.875,7.68,7.68,0,0,0,.331-3.43,1.338,1.338,0,0,0-2.554-.363,8.884,8.884,0,0,0,.433,4.114,50.173,50.173,0,0,1-2.18,4.584c-.005,0-.005.005-.011.005-1.448.743-3.932,2.378-2.912,3.633a1.66,1.66,0,0,0,1.149.534c.956,0,1.907-.962,3.265-3.3a30.456,30.456,0,0,1,4.221-1.24,8.1,8.1,0,0,0,3.42,1.042,1.383,1.383,0,0,0,1.053-2.319c-.743-.727-2.9-.518-3.932-.385ZM20.143,5.61,14.907.374A1.281,1.281,0,0,0,14,0h-.321V6.839h6.839V6.513A1.278,1.278,0,0,0,20.143,5.61ZM16.184,19.251c.219-.144-.134-.636-2.287-.481C15.879,19.614,16.184,19.251,16.184,19.251Z" transform="translate(1954.745 1448.982)" fill="#fff"/>
        <text id="BUTTON-3" data-name="BUTTON" transform="translate(1965.745 1486.247)" fill="#fff" font-size="7" font-family="Poppins-Regular, Poppins"><tspan x="-6.265" y="0">PDF</tspan></text>
      </g>
    </g>
  </g>
</svg>
