<svg xmlns="http://www.w3.org/2000/svg" xmlns:xlink="http://www.w3.org/1999/xlink" width="261" height="156" viewBox="0 0 261 156">
  <defs>
    <filter id="Rectangle_1067" x="102" y="0" width="58" height="58" filterUnits="userSpaceOnUse">
      <feOffset dy="3" input="SourceAlpha"/>
      <feGaussianBlur stdDeviation="3" result="blur"/>
      <feFlood flood-opacity="0.161"/>
      <feComposite operator="in" in2="blur"/>
      <feComposite in="SourceGraphic"/>
    </filter>
  </defs>
  <g id="Group_311" data-name="Group 311" transform="translate(-1225 -934)">
    <g id="Group_310" data-name="Group 310" transform="translate(1338 189)">
      <g id="Backward_Arrow" data-name="Backward Arrow" transform="translate(-15.165 674.165) rotate(-90)">
        <g id="Group_309" data-name="Group 309" transform="translate(-117 13)">
          <g transform="matrix(0, 1, -1, 0, 46.17, -110.83)" filter="url(#Rectangle_1067)">
            <path id="Rectangle_1067-2" data-name="Rectangle 1067" d="M20,0A20,20,0,1,1,0,20,20,20,0,0,1,20,0Z" transform="translate(111 46) rotate(-90)" fill="#0087fa"/>
          </g>
          <g id="Yes" transform="translate(29.574 10.756) rotate(90)">
            <path id="Checkbox" d="M8.677,15.312,1,7.636,2.822,5.814l5.855,5.725L19.216,1l1.822,1.822Z" transform="translate(-1 1.602)" fill="#fff"/>
            <rect id="Rectangle_556" data-name="Rectangle 556" width="20" height="20" transform="translate(0.409 0.409)" fill="none"/>
          </g>
        </g>
      </g>
    </g>
    <g id="Button_Large" data-name="Button Large" transform="translate(1192 1042)">
      <rect id="Rectangle_119" data-name="Rectangle 119" width="261" height="48" rx="24" transform="translate(33)" fill="#2699fb"/>
      <text id="BUTTON" transform="translate(164 31)" fill="#fff" font-size="20" font-family="Poppins-SemiBold, Poppins" font-weight="600"><tspan x="-69.72" y="0">SELECT THEME</tspan></text>
    </g>
  </g>
</svg>
